# Blender v2.79 (sub 0) OBJ File: ''
# www.blender.org
o table
v 0.150000 -0.075000 -0.800000
v 1.050000 -0.075000 -0.800000
v 0.150000 -0.075000 -0.650000
v 1.050000 -0.075000 -0.650000
v 0.150000 -0.075000 -0.150000
v 1.050000 -0.075000 -0.150000
v 0.150000 -0.075000 -0.000000
v 1.050000 -0.075000 -0.000000
v 1.200000 -0.075000 -0.650000
v 1.200000 -0.075000 -0.150000
v 0.000000 -0.075000 -0.150000
v -0.000000 -0.075000 -0.650000
v 1.050000 -0.720000 -0.150000
v 1.050000 -0.720000 -0.000000
v 1.200000 -0.720000 -0.150000
v 1.050000 -0.720000 -0.650000
v 1.200000 -0.720000 -0.650000
v 1.050000 -0.720000 -0.800000
v 0.150000 -0.720000 -0.650000
v -0.000000 -0.720000 -0.650000
v 0.150000 -0.720000 -0.800000
v -0.000000 -0.720000 -0.800000
v 1.200000 -0.720000 -0.800000
v 1.200000 -0.720000 -0.000000
v 0.150000 -0.720000 -0.000000
v 0.000000 -0.720000 0.000000
v 0.150000 -0.720000 -0.150000
v -0.000000 -0.720000 -0.150000
v 0.000000 -0.000000 -0.000000
v -0.000000 -0.000000 -0.800000
v 1.200000 -0.000000 -0.800000
v 1.200000 -0.000000 -0.000000
vn -0.0000 -1.0000 0.0000
vn -1.0000 0.0000 0.0000
vn 0.0000 0.0000 -1.0000
vn 0.0000 0.0000 1.0000
vn 1.0000 -0.0000 -0.0000
vn 0.0000 1.0000 0.0000
s 1
f 1//1 2//1 3//1
f 3//1 2//1 4//1
f 3//1 4//1 5//1
f 5//1 4//1 6//1
f 5//1 6//1 7//1
f 7//1 6//1 8//1
f 4//1 9//1 6//1
f 6//1 9//1 10//1
f 5//1 11//1 3//1
f 3//1 11//1 12//1
f 6//2 13//2 8//2
f 8//2 13//2 14//2
f 10//3 15//3 6//3
f 6//3 15//3 13//3
f 4//4 16//4 9//4
f 9//4 16//4 17//4
f 2//2 18//2 4//2
f 4//2 18//2 16//2
f 19//1 20//1 21//1
f 21//1 20//1 22//1
f 12//4 20//4 3//4
f 3//4 20//4 19//4
f 3//5 19//5 1//5
f 1//5 19//5 21//5
f 18//1 23//1 16//1
f 16//1 23//1 17//1
f 13//1 15//1 14//1
f 14//1 15//1 24//1
f 25//1 26//1 27//1
f 27//1 26//1 28//1
f 5//3 27//3 11//3
f 11//3 27//3 28//3
f 28//2 26//2 11//2
f 11//2 26//2 29//2
f 11//2 29//2 12//2
f 12//2 29//2 30//2
f 12//2 30//2 22//2
f 22//2 20//2 12//2
f 7//5 25//5 5//5
f 5//5 25//5 27//5
f 31//6 30//6 32//6
f 32//6 30//6 29//6
f 25//4 7//4 26//4
f 26//4 7//4 29//4
f 29//4 7//4 8//4
f 29//4 8//4 32//4
f 32//4 8//4 24//4
f 24//4 8//4 14//4
f 30//3 31//3 2//3
f 2//3 31//3 23//3
f 2//3 23//3 18//3
f 2//3 1//3 30//3
f 30//3 1//3 22//3
f 22//3 1//3 21//3
f 24//5 10//5 32//5
f 32//5 10//5 9//5
f 32//5 9//5 31//5
f 31//5 9//5 23//5
f 23//5 9//5 17//5
f 24//5 15//5 10//5
