<?xml version="1.0" encoding="utf-8"?>
<!-- Generator: Adobe Illustrator 16.0.3, SVG Export Plug-In . SVG Version: 6.00 Build 0)  -->
<!DOCTYPE svg PUBLIC "-//W3C//DTD SVG 1.1//EN" "http://www.w3.org/Graphics/SVG/1.1/DTD/svg11.dtd">
<svg version="1.1" id="Ebene_1" xmlns="http://www.w3.org/2000/svg" xmlns:xlink="http://www.w3.org/1999/xlink" x="0px" y="0px"
	 width="150" height="100%" viewBox="269.5 0 1109.244 368.697" enable-background="new 269.5 0 1109.244 368.697"
	 xml:space="preserve">
<g>
	<g>
		<polygon fill="#2A4876" points="721.843,253.992 666.853,222.245 721.843,190.497 		"/>
	</g>
	<g>
		<polygon fill="#183863" points="666.853,285.743 721.843,253.992 666.853,222.246 		"/>
	</g>
	<g>
		<polygon fill="#446090" points="721.843,253.992 776.833,222.244 721.843,190.497 		"/>
	</g>
	<g>
		<polygon fill="#345D28" points="324.49,63.497 269.5,31.749 324.49,0 		"/>
	</g>
	<g>
		<polygon fill="#2A4876" points="578.156,146.455 523.166,114.707 578.156,82.961 		"/>
	</g>
	<g>
		<polygon fill="#446090" points="578.156,209.953 523.166,178.203 578.156,146.455 		"/>
	</g>
	<g>
		<polygon fill="#6983B5" points="578.156,336.945 523.166,305.199 523.166,241.701 578.156,209.951 		"/>
	</g>
	<g>
		<polygon fill="#2A4876" points="523.166,178.203 468.176,146.455 523.166,114.708 		"/>
	</g>
	<g>
		<polygon fill="#183863" points="468.176,209.953 523.166,178.203 468.176,146.455 		"/>
	</g>
	<g>
		<polygon fill="#375483" points="523.166,178.203 578.156,146.455 523.166,114.708 		"/>
	</g>
	<g>
		<polygon fill="#5771A2" points="523.166,241.7 578.156,209.951 523.166,178.205 		"/>
	</g>
	<g>
		<polygon fill="#7791C5" points="523.166,368.695 578.156,336.945 523.166,305.199 		"/>
	</g>
	<g>
		<polygon fill="#A7C94F" points="358.193,146.455 413.184,114.707 358.193,82.961 		"/>
	</g>
	<g>
		<polygon fill="#9AC43A" points="358.193,209.951 413.184,178.202 358.193,146.456 		"/>
	</g>
	<g>
		<polygon fill="#B5D05C" points="358.193,273.449 413.184,241.7 358.193,209.951 		"/>
	</g>
	<g>
		<polygon fill="#9AC43A" points="358.193,336.949 413.184,368.697 413.184,241.701 358.193,273.452 		"/>
	</g>
	<g>
		<polygon fill="#6C962E" points="413.184,178.203 468.176,146.455 413.184,114.708 		"/>
	</g>
	<g>
		<polygon fill="#47712C" points="468.176,209.953 413.184,178.203 468.176,146.455 		"/>
	</g>
	<g>
		<polygon fill="#82AB29" points="413.184,178.203 358.193,146.455 413.184,114.708 		"/>
	</g>
	<g>
		<polygon fill="#BFD571" points="413.184,241.7 358.193,209.951 413.184,178.205 		"/>
	</g>
	<g>
		<polygon fill="#183863" points="611.862,0.007 666.853,31.753 611.862,63.502 		"/>
	</g>
	<g>
		<polygon fill="#6982B5" points="666.853,285.743 611.862,317.489 611.862,190.496 666.853,222.245 		"/>
	</g>
	<g>
		<polygon fill="#6983B5" points="666.853,95.25 611.862,63.501 666.853,31.755 		"/>
	</g>
	<g>
		<polygon fill="#7791C5" points="666.853,222.244 611.862,190.496 666.853,158.745 		"/>
	</g>
	<g>
		<polygon fill="#5771A2" points="611.862,126.999 666.853,95.25 611.862,63.504 		"/>
	</g>
	<g>
		<polygon fill="#446090" points="611.862,190.496 666.853,158.747 666.853,95.25 611.862,127 		"/>
	</g>
	<g>
		<polygon fill="#6C962E" points="269.5,95.25 324.49,63.501 269.5,31.755 		"/>
	</g>
	<g>
		<polygon fill="#82AB29" points="324.49,126.999 269.5,95.25 324.49,63.504 		"/>
	</g>
	<g>
		<polygon fill="#B5D05C" points="324.49,190.496 269.5,158.747 269.5,95.25 324.49,127 		"/>
	</g>
	<g>
		<polygon fill="#B5D05C" points="324.49,317.49 269.5,285.743 324.49,253.996 		"/>
	</g>
	<g>
		<polygon fill="#9AC43A" points="324.49,253.99 269.5,285.736 269.5,158.748 324.49,190.497 		"/>
	</g>
</g>
<g>
	<path fill="#1E1E1E" d="M863.921,88.82h-12.189V26.237h12.189V88.82z"/>
	<path fill="#1E1E1E" d="M926.419,88.82h-10.902l-24.811-38.373V88.82h-12.189V26.237h10.902l24.81,38.288V26.237h12.19V88.82z"/>
	<path fill="#1E1E1E" d="M981.274,37.141h-16.312V88.82h-12.276V37.141h-16.312V26.239h44.899V37.141z"/>
	<path fill="#1E1E1E" d="M1032.353,88.82h-41.207V26.237h41.207v10.902h-29.017V51.82h24.724v10.902h-24.724v15.195h29.017V88.82z"
		/>
	<path fill="#1E1E1E" d="M1091.674,88.82h-14.165l-12.189-24.98h-8.843v24.98h-12.189V26.237h24.553
		c7.325,0,12.849,2.546,16.568,7.639c2.462,3.263,3.692,7.099,3.692,11.504c0,6.58-2.66,11.532-7.983,14.852
		c-1.087,0.63-2.231,1.173-3.434,1.631L1091.674,88.82z M1076.906,45.382c0-3.49-1.516-5.923-4.549-7.298
		c-1.259-0.628-2.718-0.943-4.378-0.943h-11.504v16.482h11.504c3.948,0,6.639-1.487,8.07-4.464
		C1076.621,48.013,1076.906,46.755,1076.906,45.382z"/>
	<path fill="#1E1E1E" d="M1150.048,88.82h-12.705l-3.692-11.075h-22.234l-3.777,11.075h-12.79l22.749-62.581h9.615L1150.048,88.82z
		 M1130.389,67.444l-7.641-22.75l-7.898,22.75H1130.389z"/>
	<path fill="#1E1E1E" d="M1200.87,69.59c-1.432,8.527-5.581,14.367-12.447,17.513c-3.147,1.487-6.668,2.233-10.56,2.233
		c-6.695,0-12.333-2.29-16.912-6.869c-3.434-3.375-5.407-8.183-5.923-14.421c-0.172-1.946-0.258-5.465-0.258-10.559
		c0-7.668,0.343-12.934,1.029-15.797c0.916-3.606,2.633-6.637,5.151-9.099c4.465-4.578,10.103-6.868,16.912-6.868
		c8.299,0,14.564,3.034,18.801,9.1c2.117,2.977,3.519,6.524,4.206,10.644h-12.362c-1.546-5.894-5.065-8.842-10.56-8.842
		c-3.377,0-5.98,1.088-7.812,3.263c-1.546,1.662-2.489,4.293-2.834,7.898c-0.172,2.231-0.258,5.465-0.258,9.701
		c0,8.186,0.543,13.393,1.631,15.624c0.343,0.687,0.829,1.373,1.459,2.062c1.831,2.175,4.435,3.261,7.812,3.261
		c5.495,0,9.014-2.945,10.56-8.842h12.364V69.59z"/>
	<path fill="#1E1E1E" d="M1249.889,37.141h-16.312V88.82h-12.276V37.141h-16.311V26.239h44.898V37.141z"/>
	<path fill="#1E1E1E" d="M1271.95,88.82h-12.19V26.237h12.19V88.82z"/>
	<path fill="#1E1E1E" d="M1330.068,26.237l-20.775,62.581h-9.1l-20.689-62.581h12.706l12.534,40.777l12.534-40.777H1330.068z"/>
	<path fill="#1E1E1E" d="M1378.744,88.82h-41.207V26.237h41.207v10.902h-29.017V51.82h24.724v10.902h-24.724v15.195h29.017V88.82z"
		/>
</g>
<path fill="#1E1E1E" d="M908.391,202.008H896.2v-36.483l-11.933,23.777h-8.242l-12.104-23.777v36.483h-12.189v-62.58h12.019
	l16.396,33.822l16.225-33.822h12.019v62.58H908.391z"/>
<path fill="#1E1E1E" d="M964.19,202.008h-41.206v-62.58h41.206v10.902h-29.017v14.68h24.725v10.902h-24.725v15.195h29.017V202.008z"
	/>
<path fill="#1E1E1E" d="M1021.535,170.416c0,6.984-0.144,11.477-0.429,13.479c-0.802,4.979-2.747,9.015-5.837,12.104
	c-4.006,4.008-9.529,6.01-16.569,6.01h-22.577v-62.58H998.7c7.097,0,12.619,2.003,16.569,6.01c3.72,3.663,5.779,8.813,6.181,15.451
	C1021.508,161.861,1021.535,165.039,1021.535,170.416z M1009.346,170.416c0-7.324-0.486-12.075-1.459-14.251
	c-0.286-0.687-0.688-1.343-1.202-1.975c-2.06-2.575-5.094-3.862-9.1-3.862h-9.271v40.777h9.271c4.006,0,7.04-1.287,9.1-3.863
	c1.546-1.891,2.404-5.551,2.576-10.988C1009.317,174.709,1009.346,172.766,1009.346,170.416z"/>
<path fill="#1E1E1E" d="M1046.174,202.008h-12.189v-62.58h12.189V202.008z"/>
<path fill="#1E1E1E" d="M1109.1,202.008h-12.705l-3.692-11.075h-22.235l-3.776,11.075h-12.791l22.749-62.58h9.615L1109.1,202.008z
	 M1089.44,180.633l-7.641-22.749l-7.898,22.749H1089.44z"/>
<path fill="#1E1E1E" d="M1178.918,202.008h-40.604v-62.58h12.189v51.68h28.416v10.9H1178.918z"/>
<path fill="#1E1E1E" d="M1238.588,202.008h-12.705l-3.692-11.075h-22.234l-3.777,11.075h-12.79l22.748-62.58h9.616L1238.588,202.008
	z M1218.929,180.633l-7.641-22.749l-7.898,22.749H1218.929z"/>
<path fill="#1E1E1E" d="M1290.176,183.98c0,7.326-2.861,12.534-8.584,15.624c-2.976,1.604-6.496,2.404-10.559,2.404h-26.184v-62.581
	h25.153c8.127,0,13.793,2.719,16.998,8.154c1.546,2.69,2.318,5.838,2.318,9.443c0,4.752-1.802,8.558-5.408,11.416
	c-0.801,0.631-1.573,1.118-2.317,1.461C1287.314,172.649,1290.176,177.342,1290.176,183.98z M1277.128,157.541
	c0-3.434-1.573-5.666-4.722-6.695c-0.974-0.346-2.09-0.516-3.349-0.516h-12.019v14.421h12.019c4.063,0,6.611-1.544,7.641-4.636
	C1276.984,159.315,1277.128,158.457,1277.128,157.541z M1277.986,183.381c0-3.548-1.517-5.894-4.549-7.039
	c-1.03-0.4-2.231-0.603-3.605-0.603h-12.791v15.366h12.791c4.005,0,6.581-1.604,7.725-4.809
	C1277.843,185.381,1277.986,184.411,1277.986,183.381z"/>
<g>
	<path fill="#1E1E1E" d="M897.058,284.148c0,7.441-0.315,12.592-0.945,15.451c-0.915,4.293-2.689,7.758-5.322,10.39
		c-3.948,3.948-9.357,5.922-16.225,5.922h-21.977V253.33h21.977c6.926,0,12.333,1.974,16.225,5.922
		c3.72,3.723,5.78,9.273,6.182,16.654C897.029,277.168,897.058,279.915,897.058,284.148z M887.615,284.148
		c0-7.326-0.459-12.217-1.375-14.682c-0.458-1.374-1.116-2.517-1.975-3.433c-2.633-2.803-6.182-4.206-10.646-4.206h-11.504v45.582
		h11.504c4.464,0,8.013-1.401,10.646-4.206c2.061-2.231,3.147-6.751,3.263-13.563C887.587,288.387,887.615,286.552,887.615,284.148z
		"/>
	<path fill="#1E1E1E" d="M956.722,315.911h-11.075l-13.22-26.353H920.58v26.353h-9.529V253.33h24.295
		c7.097,0,12.447,2.431,16.053,7.295c2.231,3.09,3.348,6.756,3.348,10.988c0,6.413-2.488,11.219-7.469,14.423
		c-1.488,0.976-3.146,1.689-4.979,2.146L956.722,315.911z M945.304,271.701c0-4.35-1.86-7.325-5.58-8.93
		c-1.489-0.627-3.177-0.943-5.065-0.943H920.58v19.657h14.078c4.693,0,7.898-1.687,9.615-5.063
		C944.961,275.048,945.304,273.477,945.304,271.701z"/>
	<path fill="#1E1E1E" d="M1008.573,315.911h-40.005V253.33h40.005v8.5h-30.476v18.283h26.012v8.498h-26.012v18.801h30.476V315.911z"
		/>
	<path fill="#1E1E1E" d="M1060.682,298.059c0,6.752-2.891,11.79-8.67,15.108c-3.835,2.176-8.442,3.263-13.822,3.263
		c-8.299,0-14.88-2.002-19.745-6.01c-0.802-0.688-1.604-1.43-2.404-2.231l6.266-6.267c3.949,3.833,8.985,5.836,15.11,6.009
		c0.343,0,0.657,0,0.944,0c6.696,0,10.817-2.088,12.363-6.267c0.343-1.029,0.516-2.146,0.516-3.346c0-2.803-0.802-4.98-2.404-6.525
		c-1.432-1.256-3.72-2.116-6.868-2.576l-7.383-1.115c-5.209-0.686-9.157-2.346-11.848-4.979c-3.09-2.92-4.635-6.895-4.635-11.935
		c0-6.753,2.66-11.788,7.982-15.108c3.549-2.172,7.869-3.264,12.964-3.264c7.439,0,13.535,2.031,18.284,6.095
		c0.344,0.343,0.716,0.687,1.117,1.03l-6.01,5.923c-3.378-3.206-7.927-4.806-13.649-4.806c-5.266,0-8.757,1.833-10.473,5.493
		c-0.63,1.318-0.945,2.749-0.945,4.292c0,2.463,0.772,4.379,2.318,5.752c1.659,1.49,4.005,2.462,7.04,2.921l7.124,1.03
		c5.323,0.857,9.244,2.432,11.761,4.722C1058.994,288.183,1060.682,292.447,1060.682,298.059z"/>
	<path fill="#1E1E1E" d="M1117.856,284.148c0,7.441-0.315,12.592-0.945,15.451c-0.915,4.293-2.689,7.758-5.322,10.39
		c-3.948,3.948-9.358,5.922-16.225,5.922h-21.977V253.33h21.977c6.926,0,12.333,1.974,16.225,5.922
		c3.72,3.723,5.78,9.273,6.181,16.654C1117.827,277.168,1117.856,279.915,1117.856,284.148z M1108.412,284.148
		c0-7.326-0.458-12.217-1.374-14.682c-0.458-1.374-1.116-2.517-1.975-3.433c-2.633-2.803-6.182-4.206-10.646-4.206h-11.505v45.582
		h11.505c4.464,0,8.013-1.401,10.646-4.206c2.06-2.231,3.146-6.751,3.263-13.563
		C1108.385,288.387,1108.412,286.552,1108.412,284.148z"/>
	<path fill="#1E1E1E" d="M1171.854,315.911h-40.005V253.33h40.005v8.5h-30.477v18.283h26.012v8.498h-26.012v18.801h30.477V315.911z"
		/>
	<path fill="#1E1E1E" d="M1231.946,315.911h-8.67l-28.931-44.04v44.04h-9.529V253.33h8.758l28.93,43.953V253.33h9.442V315.911z"/>
	<line fill="none" x1="666.547" y1="317.929" x2="975.686" y2="317.929"/>
</g>
</svg>
